<svg xmlns="http://www.w3.org/2000/svg" width="11.801" height="12.874" viewBox="0 0 11.801 12.874" style="fill:#000;"><path class="a" d="M29.254,9.221c1.1-1.353,2.271-3.2,2.271-4.93a4.291,4.291,0,1,0-8.582,0c0,1.726,1.176,3.577,2.271,4.93-1.719.168-3.88.61-3.88,1.775,0,1.825,5.3,1.877,5.9,1.877s5.9-.053,5.9-1.877C33.134,9.83,30.972,9.388,29.254,9.221Zm-4.166-4.93a2.146,2.146,0,1,1,2.146,2.146A2.148,2.148,0,0,1,25.088,4.291Zm2.146,7.51c-2.637,0-4.367-.482-4.772-.8a8.352,8.352,0,0,1,3.622-.772c.524.563.919.925.97.971a.268.268,0,0,0,.359,0c.05-.046.446-.407.97-.971A8.352,8.352,0,0,1,32.005,11C31.6,11.319,29.87,11.8,27.233,11.8Z" transform="translate(-21.333)"/></svg>