<svg xmlns="http://www.w3.org/2000/svg" xmlns:xlink="http://www.w3.org/1999/xlink" width="32" height="32" viewBox="0 0 32 32"><defs><style>.a,.b,.d{fill:#fff;}.a,.b{stroke:#707070;}.b{opacity:0;}.c{clip-path:url(#a);}.e{stroke:none;}.f{fill:none;}</style><clipPath id="a"><rect class="a" width="26" height="26" transform="translate(412 508)"/></clipPath></defs><g transform="translate(-409 -505)"><g class="b" transform="translate(409 505)"><rect class="e" width="32" height="32"/><rect class="f" x="0.5" y="0.5" width="31" height="31"/></g><g class="c"><g transform="translate(412 508)"><path class="d" d="M25.747,15.772l-2.3-2.053L19.92,8.891a.827.827,0,0,0-.666-.333H17.423l-.666-2.164a.832.832,0,0,0-.8-.61H13.872a.807.807,0,0,0-.8.666l-.416,2.109H.971a.817.817,0,0,0-.832.832L0,21.126a.817.817,0,0,0,.832.832H3a3.284,3.284,0,0,0,6.381,0h5.91a3.284,3.284,0,0,0,6.381,0h3.5A.817.817,0,0,0,26,21.126V16.382A.775.775,0,0,0,25.747,15.772ZM6.187,22.791A1.609,1.609,0,1,1,7.8,21.182,1.61,1.61,0,0,1,6.187,22.791Zm4.078-7.574H9.378V16.1a.832.832,0,0,1-1.665,0v-.888H6.825a.832.832,0,1,1,0-1.665h.888v-.888a.832.832,0,1,1,1.665,0v.888h.888a.817.817,0,0,1,.832.832A.835.835,0,0,1,10.265,15.217Zm8.185,7.574a1.609,1.609,0,1,1,1.609-1.609A1.593,1.593,0,0,1,18.45,22.791Zm-2.636-9.35V10.223h3l2.358,3.218Z"/><rect class="d" width="1.665" height="3.468" transform="translate(14.094 1.539)"/><rect class="d" width="3.579" height="1.665" transform="translate(16.851 5.263) rotate(-45)"/><rect class="d" width="1.665" height="3.579" transform="translate(9.349 3.917) rotate(-45)"/></g></g></g></svg>