<svg id="Layer_1" data-name="Layer 1" xmlns="http://www.w3.org/2000/svg" viewBox="0 0 50 50"><defs><style>.cls-1{fill:#fff;}</style></defs><title>dead</title><path class="cls-1" d="M23.48,8c1.42,0,2.72,0,4,0,.17,0,.4.25.49.43q2.37,4.89,4.7,9.79l.65,1.35c.13-.24.22-.42.31-.6,1.68-3.51,3.37-7,5-10.51A.75.75,0,0,1,39.5,8c1.17,0,2.34,0,3.63,0-.14.31-.22.51-.32.7q-3.56,7.44-7.12,14.87a1,1,0,0,0,0,1q3.72,7.71,7.4,15.43c.09.19.17.38.29.65-1.41,0-2.75,0-4.08,0-.15,0-.33-.27-.42-.46L33.69,29.36l-.37-.75c-.13.25-.23.43-.32.62-1.74,3.64-3.49,7.28-5.22,10.93a.73.73,0,0,1-.81.5c-1.21,0-2.41,0-3.69,0,.11-.27.19-.46.28-.64q3.68-7.66,7.37-15.32a1.13,1.13,0,0,0,0-1.1q-3.59-7.43-7.14-14.87C23.71,8.54,23.63,8.35,23.48,8Z"/><path class="cls-1" d="M18.31,19.36c0,3.2,0,6.4,0,9.6.06,3.47.24,6.93.36,10.4a1.13,1.13,0,0,1-1,1.28c-.63,0-1.09-.36-1.18-1.12-.26-2.48-.5-5-.74-7.46-.13-1.28-.25-2.56-.38-3.85a1.59,1.59,0,0,0-.16-.54c-.24,2.4-.48,4.81-.71,7.21-.16,1.54-.3,3.09-.47,4.63a1.09,1.09,0,1,1-2.17-.14c.16-4.9.35-9.81.48-14.71,0-1.85-.07-3.71-.2-5.56q-.3,3.11-.61,6.21a5.05,5.05,0,0,1-.08.68,1,1,0,0,1-1,.85.94.94,0,0,1-.81-1.06c0-.87.13-1.74.22-2.6.2-1.92.44-3.84.61-5.76a3.51,3.51,0,0,1,3-3.1,9.84,9.84,0,0,1,4,.1A3.15,3.15,0,0,1,20,17.2c.32,2.83.59,5.65.86,8.48.06.7-.31,1.15-.87,1.17s-.91-.39-1-1l-.57-5.94c0-.17,0-.33-.08-.5Z"/><path class="cls-1" d="M18,10.77A2.78,2.78,0,1,1,15.3,8,2.79,2.79,0,0,1,18,10.77Z"/></svg>