<svg id="Layer_1" data-name="Layer 1" xmlns="http://www.w3.org/2000/svg" viewBox="0 0 50 50"><defs><style>.cls-1{fill:#fff;}</style></defs><title>displaced</title><path class="cls-1" d="M24,23.2c-.18,1.5-.38,3-.5,4.5a2.69,2.69,0,0,0,.36,1.19c1.6,3.51,3.22,7,4.83,10.51a7.8,7.8,0,0,1,.42,1,1.44,1.44,0,0,1-2.49,1.32,8.89,8.89,0,0,1-.73-1.08l-6.1-10.25-.33.62c-.9,1.69-1.52,3.54-2.81,5s-2.81,3.09-4.25,4.6a1.45,1.45,0,0,1-2.08.16,1.43,1.43,0,0,1-.1-2.08c1.09-1.4,2.28-2.73,3.31-4.17A10.92,10.92,0,0,0,15,31.72a33.79,33.79,0,0,0,1.41-5.31c.36-2.16.45-4.36.66-6.54,0-.45.07-.91.12-1.57a16.89,16.89,0,0,0-1.89,1.11,21.09,21.09,0,0,0-4.46,5,5.94,5.94,0,0,1-.58.81,1.39,1.39,0,0,1-1.77.25,1.37,1.37,0,0,1-.57-1.74,7.19,7.19,0,0,1,.66-1.14,20.52,20.52,0,0,1,7.89-7.33,14,14,0,0,1,3.68-1.11,3.47,3.47,0,0,1,3.4,1.46,8.18,8.18,0,0,1,.84,1.24q2.55,4.67,5.06,9.35A1.44,1.44,0,1,1,27,27.72c-.11-.15-.21-.32-.31-.47-.74-1.19-1.49-2.37-2.23-3.55l-.34-.5Z"/><path class="cls-1" d="M37.2,30.4V28.11l7.68,4.45L37.22,37V34.73h-7.7V30.4Z"/><path class="cls-1" d="M21.86,13.69a3.26,3.26,0,0,1-3.33-3.32,3.31,3.31,0,0,1,6.62,0A3.25,3.25,0,0,1,21.86,13.69Z"/></svg>