<svg id="Layer_1" data-name="Layer 1" xmlns="http://www.w3.org/2000/svg" viewBox="0 0 50 50"><defs><style>.cls-1{fill:#fff;}</style></defs><title>education</title><path class="cls-1" d="M17.34,30.16a43,43,0,0,0,12.25,0c1.44,2.45.67,6.05-1.73,8.11a6.87,6.87,0,0,1-8.69.08A6.72,6.72,0,0,1,17.34,30.16Z"/><path class="cls-1" d="M38.5,17.31l-1.22,2.46-.64-.31-12.7-6.32a.93.93,0,0,0-.94,0L10.39,19.42l-.73.35c-.36-.73-.72-1.43-1.05-2.15-.12-.25,0-.46.26-.6l14.3-7.1a.77.77,0,0,1,.56,0l14.71,7.31S38.46,17.24,38.5,17.31Z"/><path class="cls-1" d="M13.26,21.93l10-4a.69.69,0,0,1,.47,0l10,4a4.45,4.45,0,0,1-.44.22l-9.34,3.79a1.09,1.09,0,0,1-.71,0c-3.22-1.28-6.42-2.59-9.63-3.9Z"/><path class="cls-1" d="M16.63,24l3.53,1.43c1,.39,1.93.8,2.92,1.16a1.22,1.22,0,0,0,.8,0c1.95-.77,3.88-1.56,5.82-2.35l.59-.22v2.31c0,.54,0,1.09,0,1.62a.57.57,0,0,1-.54.7c-.87.13-1.73.31-2.6.37a44.62,44.62,0,0,1-8.95-.16c-1.57-.2-1.58-.2-1.58-1.78Z"/><path class="cls-1" d="M32.5,23.25c0,1,0,1.95,0,2.93a3.08,3.08,0,0,0,.22.67c.08.28.27.66.16.83a1.69,1.69,0,0,0-.07,1.47H31.75a3.47,3.47,0,0,0,.11-.6,1.34,1.34,0,0,0-.11-.6.94.94,0,0,1,.12-1.16.93.93,0,0,0,.2-.52c0-.88,0-1.75,0-2.63a1.67,1.67,0,0,1,.21-.48Z"/></svg>