<svg id="Layer_1" data-name="Layer 1" xmlns="http://www.w3.org/2000/svg" viewBox="0 0 50 50"><defs><style>.cls-1{fill:#fff;}</style></defs><title>hospital</title><path class="cls-1" d="M18,11.4H29.09v5.27l.55,0c1.39,0,2.78,0,4.16,0A4.43,4.43,0,0,1,38.05,21q.08,5.42,0,10.83a4.44,4.44,0,0,1-4.44,4.28q-10.09,0-20.18,0A4.47,4.47,0,0,1,9,31.62q0-5.22,0-10.44a4.48,4.48,0,0,1,4.37-4.46c1.34,0,2.68,0,4,0,.46,0,.61-.1.6-.58,0-1.39,0-2.78,0-4.17ZM12.76,25.1v2.62h3.33V31h2.59V27.7H22V25.11H18.65V21.8H16.08v3.3ZM27,13.49H20.06v3.18H27Z"/></svg>