<svg id="Layer_1" data-name="Layer 1" xmlns="http://www.w3.org/2000/svg" viewBox="0 0 50 50"><defs><style>.cls-1{fill:#fff;}</style></defs><title>injure</title><path class="cls-1" d="M33.05,22.71c-1.8,0-3.5,0-5.2,0a3.93,3.93,0,0,1-1.54-.38c-1-.46-2-1-3.1-1.56v8.37l.77,0c1.75,0,3.5,0,5.25,0a2.41,2.41,0,0,1,2.68,2.68c0,4.21,0,8.42,0,12.63a2.43,2.43,0,0,1-1.61,2.36,2.34,2.34,0,0,1-2.74-.73A3.44,3.44,0,0,1,27,44.33C27,41.18,27,38,27,34.89c0-.61-.14-.81-.79-.8-2.48,0-5,0-7.45,0a3.87,3.87,0,0,1-4.21-4.18q0-5.72,0-11.43a4.2,4.2,0,0,1,5.75-3.86A29.6,29.6,0,0,1,25,17.26a7.6,7.6,0,0,0,5.25,1.41,23.61,23.61,0,0,1,2.66,0c.25-1.25.21-1.26-.76-1.84a1.22,1.22,0,0,1-.37-1c0-.25.3-.52.53-.71s.36-.06.55-.06h5.39c.49,0,1,0,1.08.64s.08,1.08-.71,1.22c-.47.08-.55.54-.55,1,0,3.66,0,7.33,0,11a24.47,24.47,0,0,1-.91,6.58,11.75,11.75,0,0,0-.37,2.64c-.05,2.3,0,4.59,0,6.89a5.68,5.68,0,0,1,0,.92c-.14.8-.38,1-1.18,1s-1.12-.18-1.18-1c-.09-1.27-.11-2.55-.08-3.82a28.32,28.32,0,0,0-.82-8.64c-.82-2.84-.41-5.83-.46-8.75C33,24.11,33.05,23.45,33.05,22.71Zm1.18,4.13a23.53,23.53,0,0,0,1,9c0,.15.23.26.35.39.13-.14.35-.26.39-.42a26.41,26.41,0,0,0,.81-3.58c.19-1.77.19-3.55.28-5.35Zm0-9.35c0,.6-.22,1.14.62,1.4a2,2,0,0,1-.25,3.68c-.16.05-.38.25-.39.39,0,.7,0,1.4,0,2.1h2.73V17.49Z"/><path class="cls-1" d="M15.34,8.8a4,4,0,0,1,4-4,3.93,3.93,0,0,1,3.82,4,4,4,0,0,1-4,3.9A3.93,3.93,0,0,1,15.34,8.8Z"/></svg>