<svg xmlns="http://www.w3.org/2000/svg" xmlns:xlink="http://www.w3.org/1999/xlink" width="32" height="32" viewBox="0 0 32 32"><defs><style>.a,.b,.d{fill:#fff;}.a,.b{stroke:#707070;}.b{opacity:0;}.c{clip-path:url(#a);}.e{stroke:none;}.f{fill:none;}</style><clipPath id="a"><rect class="a" width="26" height="26" transform="translate(412 508)"/></clipPath></defs><g transform="translate(-409 -505)"><g class="b" transform="translate(409 505)"><rect class="e" width="32" height="32"/><rect class="f" x="0.5" y="0.5" width="31" height="31"/></g><g class="c"><g transform="translate(412 508)"><path class="d" d="M15.285,2.336a2.286,2.286,0,1,0-4.57,0,2.285,2.285,0,0,0,4.57,0Z"/><path class="d" d="M16.809,8.43a3.809,3.809,0,0,0-7.617,0v.762h7.617Z"/><circle class="d" cx="2.285" cy="2.285" r="2.285" transform="translate(19.855 9.191)"/><path class="d" d="M22.141,13.762a3.813,3.813,0,0,0-3.809,3.809v.762H26V17.57A3.857,3.857,0,0,0,22.141,13.762Z"/><circle class="d" cx="2.285" cy="2.285" r="2.285" transform="translate(1.574 9.191)"/><path class="d" d="M7.668,17.57a3.813,3.813,0,0,0-3.809-3.809A3.857,3.857,0,0,0,0,17.57v.762H7.668Z"/><circle class="d" cx="2.285" cy="2.285" r="2.285" transform="translate(10.715 16.809)"/><path class="d" d="M16.809,25.188a3.809,3.809,0,0,0-7.617,0V26h7.617Z"/><path class="d" d="M4.621,6.906A2.288,2.288,0,0,1,6.906,4.621h.762V3.1H6.906A3.813,3.813,0,0,0,3.1,6.906v.762H4.621Z"/><path class="d" d="M21.379,6.906v.762H22.9V6.906A3.813,3.813,0,0,0,19.094,3.1h-.762V4.621h.762A2.288,2.288,0,0,1,21.379,6.906Z"/><path class="d" d="M3.1,19.855v.762a3.813,3.813,0,0,0,3.809,3.809h.762V22.9H6.906a2.288,2.288,0,0,1-2.285-2.285v-.762Z"/><path class="d" d="M22.9,20.617v-.762H21.379v.762A2.288,2.288,0,0,1,19.094,22.9h-.762v1.523h.762A3.813,3.813,0,0,0,22.9,20.617Z"/></g></g></g></svg>