<svg id="Layer_1" data-name="Layer 1" xmlns="http://www.w3.org/2000/svg" viewBox="0 0 50 50"><defs><style>.cls-1{fill:#fff;}</style></defs><title>missing</title><path class="cls-1" d="M36,34.3H30.65c-.14-3.27.24-6.35,2.6-8.85,1.11-1.17,2.26-2.3,3.4-3.44a5.12,5.12,0,0,0,1.73-3.41c.09-2-.86-4.34-3.82-4.48a6.3,6.3,0,0,0-3.51.56,4.67,4.67,0,0,0-2.17,3.8c-.1.78-.14,1.58-.21,2.39H23.35a13.39,13.39,0,0,1,.38-4.14c1-3.8,3.34-6.39,7.24-7.27a11.4,11.4,0,0,1,9.28,1.46A9.09,9.09,0,0,1,43.6,21.16a7.41,7.41,0,0,1-1.28,2.19c-.87,1-1.86,2-2.79,3l-.3.28A8,8,0,0,0,36,33.9a1,1,0,0,1,0,.24S36,34.21,36,34.3Z"/><path class="cls-1" d="M15.19,29.17c-.07.58-.14,1.17-.2,1.76-.32,3.33-.65,6.65-1,10a2.93,2.93,0,0,1,0,.29,1.1,1.1,0,0,1-1.23,1,1.11,1.11,0,0,1-1-1.24c0-.92.05-1.83.09-2.74.13-3.77.3-7.54.4-11.31.06-2.17,0-4.35,0-6.53h-.2c-.15,1.58-.31,3.15-.47,4.73-.07.72-.13,1.43-.21,2.15a1,1,0,0,1-1,.95,1,1,0,0,1-.91-1.14c.15-1.84.33-3.67.51-5.51.11-1,.29-2,.37-3.07a3.43,3.43,0,0,1,2.81-3,9.64,9.64,0,0,1,4.34.07A3.08,3.08,0,0,1,20,18.35c.36,2.91.63,5.83.92,8.75a.94.94,0,0,1-.86,1.15c-.58,0-.95-.36-1-1-.2-2.05-.39-4.1-.59-6.15a.43.43,0,0,0-.15-.3c0,.16,0,.33,0,.49-.22,4.06,0,8.12.15,12.18l.27,7.46a1.18,1.18,0,0,1-1.07,1.35c-.59,0-1.07-.45-1.15-1.2q-.59-5.77-1.15-11.55c0-.1,0-.21,0-.32Z"/><path class="cls-1" d="M30.56,42.22v-6h5.78v6Z"/><path class="cls-1" d="M18,12a2.81,2.81,0,0,1-5.61-.06A2.81,2.81,0,1,1,18,12Z"/></svg>