<svg xmlns="http://www.w3.org/2000/svg" xmlns:xlink="http://www.w3.org/1999/xlink" width="32" height="32" viewBox="0 0 32 32"><defs><style>.a,.b,.d{fill:#fff;}.a,.b{stroke:#707070;}.b{opacity:0;}.c{clip-path:url(#a);}.e{stroke:none;}.f{fill:none;}</style><clipPath id="a"><rect class="a" width="26" height="26" transform="translate(412 508)"/></clipPath></defs><g transform="translate(-409 -505)"><g class="b" transform="translate(409 505)"><rect class="e" width="32" height="32"/><rect class="f" x="0.5" y="0.5" width="31" height="31"/></g><g class="c"><g transform="translate(412 508)"><path class="d" d="M13,14.439c8.319-5.4,7.958-10.118,7.958-10.118A4.321,4.321,0,0,0,13,1.988,4.321,4.321,0,0,0,5.042,4.32S4.681,9.038,13,14.439Z"/><path class="d" d="M5.816,13.538l-.606.606a1.618,1.618,0,0,0,0,2.289l1.214,1.214L5.347,18.724l-2.9-2.9.031-3.552A1.618,1.618,0,0,0,.857,10.651H0v5.972L4.819,21.7A3.237,3.237,0,1,0,9.4,17.118Z"/><path class="d" d="M4.95,23.652V26h5.394V22.9a4.767,4.767,0,0,1-5.394.755Z"/><path class="d" d="M25.143,10.651a1.618,1.618,0,0,0-1.618,1.618l.031,3.552-2.9,2.9-1.077-1.077,1.214-1.214a1.618,1.618,0,0,0,0-2.289l-.606-.606-3.58,3.58A3.237,3.237,0,1,0,21.181,21.7L26,16.623V10.651Z"/><path class="d" d="M15.656,22.9V26H21.05V23.652a4.767,4.767,0,0,1-5.394-.755Z"/></g></g></g></svg>