<svg id="Layer_1" data-name="Layer 1" xmlns="http://www.w3.org/2000/svg" viewBox="0 0 50 50"><defs><style>.cls-1{fill:#fff;}</style></defs><title>police</title><path class="cls-1" d="M35.63,44.18l-.83-8.56h-.08l-.28,8.55H21l-.23-10.84-.89.8L9.85,43.42A2,2,0,0,1,7.9,44,1.78,1.78,0,0,1,7,41.14c1.33-1.63,2.68-3.26,4.12-4.8,2.77-3,5.61-5.85,8.43-8.76,1.86-1.9,4.26-2.33,6.76-2.39a22.32,22.32,0,0,1,6.71.56,7.67,7.67,0,0,1,5.2,4.58,13,13,0,0,1,.66,3.49c.4,3.37.74,6.75,1.11,10.13v.23ZM32,26C28.58,32,25.24,38,21.83,44.11c.81,0,1.5,0,2.18,0a1.18,1.18,0,0,0,1.28-.73c2.39-4.32,4.81-8.62,7.21-12.92.66-1.17,1.31-2.35,2-3.61Z"/><path class="cls-1" d="M27.81,15.44c1.78,0,3.57,0,5.35,0,.57,0,.68.26.78.7A6.33,6.33,0,0,1,24,22.47a6.14,6.14,0,0,1-2.47-6.38c.08-.47.25-.68.79-.67C24.16,15.47,26,15.44,27.81,15.44Z"/><path class="cls-1" d="M21.72,14.44l-.51-4.93c1.37-.36,2.74-.63,4-1.08a7.29,7.29,0,0,1,4.94,0c1.31.44,2.68.72,4.07,1.08l-.52,4.93Z"/></svg>