<svg xmlns="http://www.w3.org/2000/svg" xmlns:xlink="http://www.w3.org/1999/xlink" width="32" height="32" viewBox="0 0 32 32"><defs><style>.a,.b,.d{fill:#fff;}.a,.b{stroke:#707070;}.b{opacity:0;}.c{clip-path:url(#a);}.e{stroke:none;}.f{fill:none;}</style><clipPath id="a"><rect class="a" width="26" height="26" transform="translate(412 508)"/></clipPath></defs><g transform="translate(-409 -505)"><g class="b" transform="translate(409 505)"><rect class="e" width="32" height="32"/><rect class="f" x="0.5" y="0.5" width="31" height="31"/></g><g class="c"><path class="d" d="M24.984,0H9.005a1.015,1.015,0,0,0-.718.3l-3.7,3.7H1.016A1.016,1.016,0,0,0,0,5.01V20.99a1.016,1.016,0,0,0,1.016,1.016H24.984A1.016,1.016,0,0,0,26,20.99V1.016A1.016,1.016,0,0,0,24.984,0ZM9.426,2.031h5.117L12.579,3.995H7.462ZM23.969,19.974H2.031V6.026H13a1.016,1.016,0,0,0,.718-.3l3.7-3.7h6.553Zm0,0" transform="translate(412 509.997)"/></g><path class="d" d="M415.578,517.828v10.243h18.865V514h-3.906l-3.979,3.832Z"/></g></svg>