<svg xmlns="http://www.w3.org/2000/svg" xmlns:xlink="http://www.w3.org/1999/xlink" width="32" height="32" viewBox="0 0 32 32"><defs><style>.a,.b,.d{fill:#fff;}.a,.b{stroke:#707070;}.b{opacity:0;}.c{clip-path:url(#a);}.e{stroke:none;}.f{fill:none;}</style><clipPath id="a"><rect class="a" width="26" height="26" transform="translate(412 508)"/></clipPath></defs><g transform="translate(-409 -505)"><g class="b" transform="translate(409 505)"><rect class="e" width="32" height="32"/><rect class="f" x="0.5" y="0.5" width="31" height="31"/></g><g class="c"><g transform="translate(412 508)"><path class="d" d="M0,11.44l1,1.147L3.047,10.8V26h3.1V13.813H19.855V26h3.1V10.8L25,12.587l1-1.147L13,0Zm9.191.85H6.145V10.766H9.191Zm5.332,0H11.477V10.766h3.047Zm5.332,0H16.809V10.766h3.047Z"/><path class="d" d="M7.668,24.477H18.332V26H7.668Z"/><path class="d" d="M7.668,18.383H18.332v1.523H7.668Z"/><path class="d" d="M7.668,21.43H18.332v1.523H7.668Z"/><path class="d" d="M7.668,15.336H18.332v1.523H7.668Z"/></g></g></g></svg>