<svg id="Layer_1" data-name="Layer 1" xmlns="http://www.w3.org/2000/svg" viewBox="0 0 50 50"><defs><style>.cls-1{fill:#fff;}</style></defs><title>water</title><path class="cls-1" d="M22.77,8c.29,1.26.56,2.64.94,4A48.27,48.27,0,0,0,28.17,22c1.09,2,2.17,4,3.16,6A9.06,9.06,0,0,1,27.23,40a9.44,9.44,0,0,1-12.47-3.32,8.41,8.41,0,0,1-.61-8.44c1.08-2.25,2.28-4.44,3.47-6.63a47.22,47.22,0,0,0,4.23-9.7C22.22,10.55,22.48,9.19,22.77,8Zm4.81,29.35.37-.22a6.19,6.19,0,0,0,2.45-6.81,12.47,12.47,0,0,0-1.79-4A12.83,12.83,0,0,1,27.58,37.31Z"/></svg>